<svg xmlns="http://www.w3.org/2000/svg" width="64" height="64"><path fill="#00599c" d="M59.7 48c0.4-0.8 0.7-1.6 0.7-2.4V18.4c0-0.8-0.3-1.7-0.7-2.4L32 32Z" style="stroke-width:0.2"/><path fill="#004482" d="m34.5 63.4 23.5-13.6c0.7-0.4 1.3-1.1 1.7-1.8L32 32 4.3 48c0.4 0.8 1.1 1.4 1.7 1.8l23.5 13.6c1.4 0.8 3.6 0.8 4.9 0" style="stroke-width:0.2"/><path fill="#659ad2" d="M59.8 16c-0.4-0.8-1.1-1.4-1.7-1.8L34.5 0.6c-1.4-0.8-3.6-0.8-4.9 0L6.1 14.2c-1.4 0.8-2.5 2.7-2.5 4.3v27.1c0 0.8 0.3 1.7 0.7 2.4l27.7-16Z" style="stroke-width:0.2"/><path fill="#fff" d="M32 51c-10.5 0-19-8.5-19-19s8.5-19 19-19c6.7 0 13 3.6 16.4 9.5l-8.2 4.7a9.5 9.5 0 0 0-8.2-4.7c-5.2 0-9.5 4.3-9.5 9.5s4.3 9.5 9.5 9.5a9.5 9.5 0 0 0 8.2-4.7l8.2 4.7c-3.4 5.8-9.7 9.5-16.4 9.5"/><path fill="#fff" d="M46.8 35.2h2.1v-2.1h2.1v-2.1h-2.1v-2.1h-2.1v2.1h-2.1v2.1h2.1zM54.7 35.2h2.1v-2.1h2.1v-2.1h-2.1v-2.1h-2.1v2.1h-2.1v2.1h2.1z"/></svg>