<svg viewBox="0 0 16 16" xmlns="http://www.w3.org/2000/svg"><path d="M8 0C3.6 0 0 3.6 0 8C0 11.5 2.3 14.5 5.5 15.6C5.9 15.7 6 15.4 6 15.2C6 15 6 14.4 6 13.7C4 14.1 3.5 13.2 3.3 12.8C3.2 12.6 2.8 11.8 2.5 11.6C2.2 11.5 1.8 11.1 2.5 11.1C3.1 11.1 3.6 11.7 3.7 11.9C4.4 13.2 5.6 12.8 6.1 12.6C6.1 12.1 6.3 11.7 6.6 11.5C4.8 11.3 2.9 10.6 2.9 7.6C2.9 6.7 3.2 6 3.7 5.4C3.7 5.2 3.4 4.4 3.8 3.3C3.8 3.3 4.5 3.1 6 4.1C6.7 4 7.3 3.9 8 3.9C8.7 3.9 9.4 4 10 4.1C11.6 3.1 12.2 3.3 12.2 3.3C12.7 4.4 12.4 5.2 12.3 5.4C12.8 6 13.1 6.7 13.1 7.6C13.1 10.6 11.2 11.3 9.5 11.5C9.8 11.8 10 12.3 10 13C10 14.1 10 14.9 10 15.2C10 15.4 10.2 15.7 10.6 15.6C13.7 14.5 16 11.5 16 8C16 3.6 12.4 0 8 0Z" fill="#fff"/></svg>