<svg version="1.1" viewBox="0.0 0.0 256.0 256.0" fill="none" stroke="none" stroke-linecap="square" stroke-miterlimit="10" xmlns:xlink="http://www.w3.org/1999/xlink" xmlns="http://www.w3.org/2000/svg"><clipPath id="p.0"><path d="m0 0l256.0 0l0 256.0l-256.0 0l0 -256.0z" clip-rule="nonzero"/></clipPath><g clip-path="url(#p.0)"><path fill="#000000" fill-opacity="0.0" d="m0 0l256.0 0l0 256.0l-256.0 0z" fill-rule="evenodd"/><path fill="#000000" fill-opacity="0.0" d="m124.7664 69.61577c8.126419 -7.6412926 30.993881 -47.844704 48.75853 -45.84777c17.764648 1.9969387 61.90245 34.093613 57.82939 57.8294c-4.073044 23.735786 -61.637787 76.28433 -82.267715 84.5853c-20.629913 8.300964 -34.59317 -28.98294 -41.511803 -34.779526" fill-rule="evenodd"/><path stroke="#e9e9e9" stroke-width="24.0" stroke-linejoin="round" stroke-linecap="butt" d="m124.7664 69.61577c8.126419 -7.6412926 30.993881 -47.844704 48.75853 -45.84777c17.764648 1.9969387 61.90245 34.093613 57.82939 57.8294c-4.073044 23.735786 -61.637787 76.28433 -82.267715 84.5853c-20.629913 8.300964 -34.59317 -28.98294 -41.511803 -34.779526" fill-rule="evenodd"/><path fill="#000000" fill-opacity="0.0" d="m128.67932 188.25337c-8.409889 8.038498 -32.4112 49.83072 -50.45932 48.230972c-18.048119 -1.5997314 -61.90245 -34.093613 -57.829395 -57.82939c4.0730534 -23.735779 61.325893 -75.80228 82.267715 -84.585304c20.941818 -8.783028 36.152664 26.572617 43.383194 31.887138" fill-rule="evenodd"/><path stroke="#e9e9e9" stroke-width="24.0" stroke-linejoin="round" stroke-linecap="butt" d="m128.67932 188.25337c-8.409889 8.038498 -32.4112 49.83072 -50.45932 48.230972c-18.048119 -1.5997314 -61.90245 -34.093613 -57.829395 -57.82939c4.0730534 -23.735779 61.325893 -75.80228 82.267715 -84.585304c20.941818 -8.783028 36.152664 26.572617 43.383194 31.887138" fill-rule="evenodd"/></g></svg>