<svg xmlns="http://www.w3.org/2000/svg" xmlns:xlink="http://www.w3.org/1999/xlink" width="0" height="0">
<defs><radialGradient id="php-a" gradientUnits="userSpaceOnUse" cy="-48.5" cx="77.9" gradientTransform="matrix(1.5 0 0 1.4 -41.2 75.7)" r="146"><stop stop-color="#dddce9" offset="0"/><stop stop-color="#5664a3" offset=".37"/><stop offset="1"/></radialGradient><linearGradient id="azure-a" gradientUnits="userSpaceOnUse" x1="353.1" x2="107.1" y1="56.3" y2="783"><stop offset="0" stop-color="#114a8b"/><stop offset="1" stop-color="#0669bc"/></linearGradient><linearGradient id="azure-b" gradientUnits="userSpaceOnUse" x1="429.8" x2="372.9" y1="394.9" y2="414.2"><stop offset="0" stop-opacity=".3"/><stop offset=".1" stop-opacity=".2"/><stop offset=".3" stop-opacity=".1"/><stop offset=".6" stop-opacity=".1"/><stop offset="1" stop-opacity="0"/></linearGradient><linearGradient id="azure-c" gradientUnits="userSpaceOnUse" x1="398.4" x2="668.4" y1="35.1" y2="754.4"><stop offset="0" stop-color="#3ccbf4"/><stop offset="1" stop-color="#2892df"/></linearGradient></defs>
<symbol id="js" viewBox="0 0 1052 1052"><path fill="#f0db4f" d="M0 0h1052v1052H0z"/><path d="M965.9 801.1c-7.7-48-39-88.3-131.7-125.9-32.2-14.8-68.1-25.4-78.8-49.8-3.8-14.2-4.3-22.2-1.9-30.8 6.9-27.9 40.2-36.6 66.6-28.6 17 5.7 33.1 18.8 42.8 39.7 45.4-29.4 45.3-29.2 77-49.4-11.6-18-17.8-26.3-25.4-34-27.3-30.5-64.5-46.2-124-45-10.3 1.3-20.7 2.7-31 4-29.7 7.5-58 23.1-74.6 44-49.8 56.5-35.6 155.4 25 196.1 59.7 44.8 147.4 55 158.6 96.9 10.9 51.3-37.7 67.9-86 62-35.6-7.4-55.4-25.5-76.8-58.4-39.4 22.8-39.4 22.8-79.9 46.1 9.6 21 19.7 30.5 35.8 48.7 76.2 77.3 266.9 73.5 301.1-43.5 1.4-4 10.6-30.8 3.2-72.1zm-394-317.6h-98.4c0 85-0.4 169.4-0.4 254.4 0 54.1 2.8 103.7-6 118.9-14.4 29.9-51.7 26.2-68.7 20.4-17.3-8.5-26.1-20.6-36.3-37.7-2.8-4.9-4.9-8.7-5.6-9-26.7 16.3-53.3 32.7-80 49 13.3 27.3 32.9 51 58 66.4 37.5 22.5 87.9 29.4 140.6 17.3 34.3-10 63.9-30.7 79.4-62.2 22.4-41.3 17.6-91.3 17.4-146.6 0.5-90.2 0-180.4 0-270.9z" fill="#323330"/></symbol><symbol id="mysql" viewBox="0 0 512 512"><path d="m0 0H512V512H0" fill="#fff"/><path fill="#005c87" d="m55 285v56H41v-56q0-7 6-9t12-1 10 8l21 48 21-48q4-7 10-8t12 1 6 9v56h-14v-56l-22 49q-3 8-13 8t-13-8m74-38v32c0 6 8 13 25 13h28v5q0 6-11 6h-42v9h41q26 0 26-15v-50h-14v36h-31q-8 0-8-5v-31m176-130c7-2 12 6 6 10m34 90q-15-14-27-43-7 5-8 22c-1 7-17-14-6-40q2-6 0-8c-14-17-7-23-21-40s3-16 19-2c28-2 55 28 64 48s15 37 21 38q20 6 33 19-16 0-25 5c5 17 24 17 38 31-10-19-26-21-29-28 13-4 14-2 24-5q-12-17-39-28s-6-10-17-35-41-51-67-51c-27-21-41-5-26 11s4 18 21 40c-16 47 17 67 17 41l1-6c9 20 14 18 24 29"/><path fill="#e4830f" d="M229 332h38q11 0 11-6v-8q0-5-11-5h-15c-11 0-23-5-23-14v-8c0-9 7-15 21-15h43v9h-40q-9 0-9 6v6q0 7 9 7h19c11 0 20 6 20 12v11c0 9-11 14-21 14h-42m111-9h-12q-11 0-11-8v-31q0-8 12-8h18q12 0 12 8v32q0 4-4 6l-11-10h-16m35 17q9-2 9-13v-33q0-16-25-16h-21q-24 0-24 15v34q0 16 23 16h25l11 10h17m3-75h14v49q0 7 12 7h37v9h-38q-25 0-25-17"/></symbol><symbol id="node" viewBox="0 0 256 289" preserveAspectRatio="xMidYMid"><polygon points="128,0 250,74 250,215 128,288 2.5,215 6,74" fill="#f5f5f5"/><path d="M128 288.5c-4 0-7.7-1.1-11.1-2.9l-35.2-20.9c-5.3-2.9-2.7-4-1.1-4.5 7.2-2.4 8.5-2.9 15.9-7.2 0.8-0.5 1.9-0.3 2.7 0.3l27 16.2c1.1 0.5 2.4 0.5 3.2 0l105.7-61.2c1.1-0.5 1.6-1.6 1.6-2.9V83.1c0-1.3-0.5-2.4-1.6-2.9l-105.7-61c-1.1-0.5-2.4-0.5-3.2 0L20.4 80.2c-1.1 0.5-1.6 1.9-1.6 2.9v122.2c0 1.1 0.5 2.4 1.6 2.9l28.9 16.7c15.6 8 25.4-1.3 25.4-10.6V93.7c0-1.6 1.3-3.2 3.2-3.2h13.5c1.6 0 3.2 1.3 3.2 3.2v120.6c0 20.9-11.4 33.1-31.3 33.1-6.1 0-10.9 0-24.4-6.6l-27.8-15.9C4.2 220.9 0 213.5 0 205.5V83.3c0-8 4.2-15.4 11.1-19.3L116.9 2.8c6.6-3.7 15.6-3.7 22.3 0L244.9 64c6.9 4 11.1 11.4 11.1 19.3v122.2c0 8-4.2 15.4-11.1 19.3L139.1 286.1c-3.4 1.6-7.4 2.4-11.1 2.4zm32.6-84c-46.4 0-55.9-21.2-55.9-39.2 0-1.6 1.3-3.2 3.2-3.2h13.8c1.6 0 2.9 1.1 2.9 2.7 2.1 14 8.2 20.9 36.3 20.9 22.3 0 31.8-5 31.8-17 0-6.9-2.6-11.9-37.4-15.4-28.9-2.9-46.9-9.3-46.9-32.3 0-21.5 18-34.2 48.2-34.2 33.9 0 50.6 11.7 52.7 37.1 0 0.8-0.3 1.6-0.8 2.4-0.5 0.5-1.3 1.1-2.1 1.1h-13.8c-1.3 0-2.6-1.1-2.9-2.4-3.2-14.6-11.4-19.3-33.1-19.3-24.4 0-27.3 8.5-27.3 14.8 0 7.7 3.4 10.1 36.3 14.3 32.6 4.2 48 10.3 48 33.1-0.3 23.3-19.3 36.6-53 36.6z" fill="#539E43"/></symbol><symbol id="php" viewBox="0 0 295.6 157.5"><ellipse rx="146" ry="76" stroke="url(#php-a)" cy="78.7" cx="147.8" stroke-width="5.5" fill="#6c7eb7"/><path id="php-b" stroke-linejoin="round" d="M42.8 123.8l16-81h37c16 1 24 9 24 23 0 24-19 38-36 37h-18l-4 21h-19zm27-36l5-30h13c7 0 12 3 12 9-1 17-9 20-18 21h-12z" fill-rule="evenodd" stroke="#fff" stroke-width="2"/><path stroke-linejoin="round" d="M113.8 102.7l16-81h19l-4 21h18c16 1 22 9 20 19l-7 41h-20l7-37c1-5 1-8-6-8h-15l-9 45h-19z" stroke="#fff" stroke-width="2"/><use xlink:href="#php-b" transform="translate(134)" height="100%" width="100%"/></symbol><symbol id="python" viewBox="0 0 512 512"><path d="M253 0c-20.9.1-40.8 1.9-58.4 5-51.7 9.1-61.1 28.2-61.1 63.5V115h122.1v15.5H87.7c-35.5 0-66.6 21.3-76.3 61.9C.2 239-.3 268 11.4 316.6c8.7 36.2 29.4 61.9 64.9 61.9h42v-55.8c0-40.3 34.9-75.9 76.3-75.9h122c34 0 61.1-28 61.1-62.1V68.5c0-33.1-27.9-58-61.1-63.5-21-3.5-42.7-5.1-63.6-5m-66.1 37.4c12.6 0 22.9 10.5 22.9 23.3s-10.3 23.2-22.9 23.2C174.3 84 164 73.6 164 60.8c0-12.9 10.3-23.4 22.9-23.4" fill="#3d7aab"/><path d="M392.9 130.6v54.2c0 42.1-35.7 77.4-76.3 77.4h-122c-33.4 0-61.1 28.6-61.1 62.1v116.3c0 33.1 28.8 52.6 61.1 62.1 38.7 11.4 75.7 13.4 122 0 30.8-8.9 61.1-26.8 61.1-62.1V394h-122v-15.5h183.1c35.5 0 48.7-24.8 61.1-61.9 12.8-38.3 12.2-75.1 0-124.1-8.8-35.3-25.5-61.9-61.1-61.9zm-68.6 294.5c12.7 0 22.9 10.4 22.9 23.2 0 12.9-10.3 23.3-22.9 23.3s-22.9-10.5-22.9-23.3 10.3-23.2 22.9-23.2" fill="#ffdf5a"/></symbol><symbol id="regex" viewBox="0 0 200 200"><circle cx="100" cy="100" r="100" fill="#4CAF50"/><text x="50%" y="50%" fill="#FFF" font-weight="600" font-size="100" font-family="Arial,sans-serif" text-anchor="middle" dominant-baseline="middle" lengthAdjust="spacingAndGlyphs">(.*)</text></symbol><symbol id="ts" viewBox="0 0 400 400"><path fill="#007acc" d="M0 200V0h400v400H0"/><path fill="#fff" d="M87.7 200.7V217h52v148h36.9V217h52v-16c0-9 0-16.3-.4-16.5 0-.3-31.7-.4-70.2-.4l-70 .3v16.4l-.3-.1zM321.4 184c10.2 2.4 18 7 25 14.3 3.7 4 9.2 11 9.6 12.8 0 .6-17.3 12.3-27.8 18.8-.4.3-2-1.4-3.6-4-5.2-7.4-10.5-10.6-18.8-11.2-12-.8-20 5.5-20 16 0 3.2.6 5 1.8 7.6 2.7 5.5 7.7 8.8 23.2 15.6 28.6 12.3 41 20.4 48.5 32 8.5 13 10.4 33.4 4.7 48.7-6.4 16.7-22 28-44.3 31.7-7 1.2-23 1-30.5-.3-16-3-31.3-11-40.7-21.3-3.7-4-10.8-14.7-10.4-15.4l3.8-2.4 15-8.7 11.3-6.6 2.6 3.5c3.3 5.2 10.7 12.2 15 14.6 13 6.7 30.4 5.8 39-2 3.7-3.4 5.3-7 5.3-12 0-4.6-.7-6.7-3-10.2-3.2-4.4-9.6-8-27.6-16-20.7-8.8-29.5-14.4-37.7-23-4.7-5.2-9-13.3-11-20-1.5-5.8-2-20-.6-25.7 4.3-20 19.4-34 41-38 7-1.4 23.5-.8 30.4 1l-.2.2z"/></symbol><symbol id="aws" viewBox="0 0 304 200"><path fill="#252f3e" d="m86 66 2 9c0 3 1 5 3 8v2l-1 3-7 4-2 1-3-1-4-5-3-6c-8 9-18 14-29 14-9 0-16-3-20-8-5-4-8-11-8-19s3-15 9-20c6-6 14-8 25-8a79 79 0 0 1 22 3v-7c0-8-2-13-5-16-3-4-8-5-16-5l-11 1a80 80 0 0 0-14 5h-2c-1 0-2-1-2-3v-5l1-3c0-1 1-2 3-2l12-5 16-2c12 0 20 3 26 8 5 6 8 14 8 25v32zM46 82l10-2c4-1 7-4 10-7l3-6 1-9v-4a84 84 0 0 0-19-2c-6 0-11 1-15 4-3 2-4 6-4 11s1 8 3 11c3 2 6 4 11 4zm80 10-4-1-2-3-23-78-1-4 2-2h10l4 1 2 4 17 66 15-66 2-4 4-1h8l4 1 2 4 16 67 17-67 2-4 4-1h9c2 0 3 1 3 2v2l-1 2-24 78-2 4-4 1h-9l-4-1-1-4-16-65-15 64-2 4-4 1h-9zm129 3a66 66 0 0 1-27-6l-3-3-1-2v-5c0-2 1-3 2-3h2l3 1a54 54 0 0 0 23 5c6 0 11-2 14-4 4-2 5-5 5-9l-2-7-10-5-15-5c-7-2-13-6-16-10a24 24 0 0 1 5-34l10-5a44 44 0 0 1 20-2 110 110 0 0 1 12 3l4 2 3 2 1 4v4c0 3-1 4-2 4l-4-2c-6-2-12-3-19-3-6 0-11 0-14 2s-4 5-4 9c0 3 1 5 3 7s5 4 11 6l14 4c7 3 12 6 15 10s5 9 5 14l-3 12-7 8c-3 3-7 5-11 6l-14 2z"/><path d="M274 144A220 220 0 0 1 4 124c-4-3-1-6 2-4a300 300 0 0 0 263 16c5-2 10 4 5 8z" fill="#f90"/><path d="M287 128c-4-5-28-3-38-1-4 0-4-3-1-5 19-13 50-9 53-5 4 5-1 36-18 51-3 2-6 1-5-2 5-10 13-33 9-38z" fill="#f90"/></symbol><symbol id="cpp" viewBox="0 0 64 64"><path fill="#00599c" d="M59.7 48c0.4-0.8 0.7-1.6 0.7-2.4V18.4c0-0.8-0.3-1.7-0.7-2.4L32 32Z" stroke-width="0.2"/><path fill="#004482" d="m34.5 63.4 23.5-13.6c0.7-0.4 1.3-1.1 1.7-1.8L32 32 4.3 48c0.4 0.8 1.1 1.4 1.7 1.8l23.5 13.6c1.4 0.8 3.6 0.8 4.9 0" stroke-width="0.2"/><path fill="#659ad2" d="M59.8 16c-0.4-0.8-1.1-1.4-1.7-1.8L34.5 0.6c-1.4-0.8-3.6-0.8-4.9 0L6.1 14.2c-1.4 0.8-2.5 2.7-2.5 4.3v27.1c0 0.8 0.3 1.7 0.7 2.4l27.7-16Z" stroke-width="0.2"/><path fill="#fff" d="M32 51c-10.5 0-19-8.5-19-19s8.5-19 19-19c6.7 0 13 3.6 16.4 9.5l-8.2 4.7a9.5 9.5 0 0 0-8.2-4.7c-5.2 0-9.5 4.3-9.5 9.5s4.3 9.5 9.5 9.5a9.5 9.5 0 0 0 8.2-4.7l8.2 4.7c-3.4 5.8-9.7 9.5-16.4 9.5"/><path fill="#fff" d="M46.8 35.2h2.1v-2.1h2.1v-2.1h-2.1v-2.1h-2.1v2.1h-2.1v2.1h2.1zM54.7 35.2h2.1v-2.1h2.1v-2.1h-2.1v-2.1h-2.1v2.1h-2.1v2.1h2.1z"/></symbol><symbol id="css" viewBox="0 0 512 512"><path fill="#264de4" d="M71.4 460.8 30.3 0h451.5l-41.1 460.7L255.7 512z"/><path fill="#2965f1" d="m405.4 431.4 35.1-393.7H256v435.1z"/><path fill="#ebebeb" d="m124.5 208.6 5.1 56.5H256V208.6zm-5-57.9H256V94.2H114.3zM256 355.4l-0.2 0.1-62.9-17-4-45.1h-56.7l7.9 88.7 115.8 32.1 0.3-0.1z"/><path fill="#fff" d="M255.8 208.6v56.5H325.4l-6.6 73.3-63 17v58.8l115.9-32.1 0.9-9.5 13.3-148.8 1.4-15.2 10.2-114.4H255.8v56.5h79.6L330.3 208.6z"/></symbol><symbol id="html" fill="none" viewBox="0 0 124 141.5"><path d="M10.4 126.9L0 0l124 0.3-11 126.6-50.6 14.6z" fill="#e34f26"/><path d="M62.5 129.3V12.1l51.1 0.2-9.1 104.9z" fill="#ef652a"/><path d="M99.5 41.4l1.4-15.5H22.4l4.3 47.5h54.2L78.8 93.6l-17.4 4.7-17.6-5.1-0.9-12.1H27.3l2.1 24.7 32 8.9 32.3-8.9 4.3-48.2H41.1L39.5 41.4z" fill="#fff"/></symbol><symbol id="azure" viewBox="-0.45 0.38 800.89 754.23"><path d="M266.71.4h236.71L257.69 728.9a37.8 37.8 0 0 1-5.42 10.38c-2.33 3.16-5.14 5.93-8.33 8.22s-6.71 4.07-10.45 5.27-7.64 1.82-11.56 1.82H37.71c-5.98 0-11.88-1.42-17.2-4.16A37.636 37.636 0 0 1 7.1 738.87a37.762 37.762 0 0 1-6.66-16.41c-.89-5.92-.35-11.97 1.56-17.64L230.94 26.07c1.25-3.72 3.08-7.22 5.42-10.38 2.33-3.16 5.15-5.93 8.33-8.22 3.19-2.29 6.71-4.07 10.45-5.27S262.78.38 266.7.38v.01z" fill="url(#azure-a)"/><path d="M703.07 754.59H490.52c-2.37 0-4.74-.22-7.08-.67-2.33-.44-4.62-1.1-6.83-1.97s-4.33-1.95-6.34-3.21a38.188 38.188 0 0 1-5.63-4.34l-241.2-225.26a17.423 17.423 0 0 1-5.1-8.88 17.383 17.383 0 0 1 7.17-18.21c2.89-1.96 6.3-3.01 9.79-3.01h375.36l92.39 265.56z" fill="#0078d4"/><path d="M504.27.4l-165.7 488.69 270.74-.06 92.87 265.56H490.43c-2.19-.02-4.38-.22-6.54-.61s-4.28-.96-6.34-1.72a38.484 38.484 0 0 1-11.36-6.51L303.37 593.79l-45.58 134.42c-1.18 3.36-2.8 6.55-4.82 9.48a40.479 40.479 0 0 1-16.05 13.67 40.03 40.03 0 0 1-10.13 3.23H37.82c-6.04.02-12-1.42-17.37-4.2A37.664 37.664 0 0 1 .43 722a37.77 37.77 0 0 1 1.87-17.79L230.87 26.58c1.19-3.79 2.98-7.36 5.3-10.58 2.31-3.22 5.13-6.06 8.33-8.4s6.76-4.16 10.53-5.38S262.75.38 266.72.4h237.56z" fill="url(#azure-b)"/><path d="M797.99 704.82a37.847 37.847 0 0 1 1.57 17.64 37.867 37.867 0 0 1-6.65 16.41 37.691 37.691 0 0 1-30.61 15.72H498.48c5.98 0 11.88-1.43 17.21-4.16 5.32-2.73 9.92-6.7 13.41-11.56s5.77-10.49 6.66-16.41.35-11.97-1.56-17.64L305.25 26.05a37.713 37.713 0 0 0-13.73-18.58c-3.18-2.29-6.7-4.06-10.43-5.26S273.46.4 269.55.4h263.81c3.92 0 7.81.61 11.55 1.81 3.73 1.2 7.25 2.98 10.44 5.26 3.18 2.29 5.99 5.06 8.32 8.21s4.15 6.65 5.41 10.37l228.95 678.77z" fill="url(#azure-c)"/></symbol><symbol id="react" viewBox="175.7 78 490.6 436.9"><g fill="#61dafb"><path d="m666.3 296.5c0-32.5-40.7-63.3-103.1-82.4 14.4-63.6 8-114.2-20.2-130.4-6.5-3.8-14.1-5.6-22.4-5.6v22.3c4.6 0 8.3.9 11.4 2.6 13.6 7.8 19.5 37.5 14.9 75.7-1.1 9.4-2.9 19.3-5.1 29.4-19.6-4.8-41-8.5-63.5-10.9-13.5-18.5-27.5-35.3-41.6-50 32.6-30.3 63.2-46.9 84-46.9v-22.3c-27.5 0-63.5 19.6-99.9 53.6-36.4-33.8-72.4-53.2-99.9-53.2v22.3c20.7 0 51.4 16.5 84 46.6-14 14.7-28 31.4-41.3 49.9-22.6 2.4-44 6.1-63.6 11-2.3-10-4-19.7-5.2-29-4.7-38.2 1.1-67.9 14.6-75.8 3-1.8 6.9-2.6 11.5-2.6v-22.3c-8.4 0-16 1.8-22.6 5.6-28.1 16.2-34.4 66.7-19.9 130.1-62.2 19.2-102.7 49.9-102.7 82.3 0 32.5 40.7 63.3 103.1 82.4-14.4 63.6-8 114.2 20.2 130.4 6.5 3.8 14.1 5.6 22.5 5.6 27.5 0 63.5-19.6 99.9-53.6 36.4 33.8 72.4 53.2 99.9 53.2 8.4 0 16-1.8 22.6-5.6 28.1-16.2 34.4-66.7 19.9-130.1 62-19.1 102.5-49.9 102.5-82.3zm-130.2-66.7c-3.7 12.9-8.3 26.2-13.5 39.5-4.1-8-8.4-16-13.1-24-4.6-8-9.5-15.8-14.4-23.4 14.2 2.1 27.9 4.7 41 7.9zm-45.8 106.5c-7.8 13.5-15.8 26.3-24.1 38.2-14.9 1.3-30 2-45.2 2-15.1 0-30.2-.7-45-1.9-8.3-11.9-16.4-24.6-24.2-38-7.6-13.1-14.5-26.4-20.8-39.8 6.2-13.4 13.2-26.8 20.7-39.9 7.8-13.5 15.8-26.3 24.1-38.2 14.9-1.3 30-2 45.2-2 15.1 0 30.2.7 45 1.9 8.3 11.9 16.4 24.6 24.2 38 7.6 13.1 14.5 26.4 20.8 39.8-6.3 13.4-13.2 26.8-20.7 39.9zm32.3-13c5.4 13.4 10 26.8 13.8 39.8-13.1 3.2-26.9 5.9-41.2 8 4.9-7.7 9.8-15.6 14.4-23.7 4.6-8 8.9-16.1 13-24.1zm-101.4 106.7c-9.3-9.6-18.6-20.3-27.8-32 9 .4 18.2.7 27.5.7 9.4 0 18.7-.2 27.8-.7-9 11.7-18.3 22.4-27.5 32zm-74.4-58.9c-14.2-2.1-27.9-4.7-41-7.9 3.7-12.9 8.3-26.2 13.5-39.5 4.1 8 8.4 16 13.1 24s9.5 15.8 14.4 23.4zm73.9-208.1c9.3 9.6 18.6 20.3 27.8 32-9-.4-18.2-.7-27.5-.7-9.4 0-18.7.2-27.8.7 9-11.7 18.3-22.4 27.5-32zm-74 58.9c-4.9 7.7-9.8 15.6-14.4 23.7-4.6 8-8.9 16-13 24-5.4-13.4-10-26.8-13.8-39.8 13.1-3.1 26.9-5.8 41.2-7.9zm-90.5 125.2c-35.4-15.1-58.3-34.9-58.3-50.6s22.9-35.6 58.3-50.6c8.6-3.7 18-7 27.7-10.1 5.7 19.6 13.2 40 22.5 60.9-9.2 20.8-16.6 41.1-22.2 60.6-9.9-3.1-19.3-6.5-28-10.2zm53.8 142.9c-13.6-7.8-19.5-37.5-14.9-75.7 1.1-9.4 2.9-19.3 5.1-29.4 19.6 4.8 41 8.5 63.5 10.9 13.5 18.5 27.5 35.3 41.6 50-32.6 30.3-63.2 46.9-84 46.9-4.5-.1-8.3-1-11.3-2.7zm237.2-76.2c4.7 38.2-1.1 67.9-14.6 75.8-3 1.8-6.9 2.6-11.5 2.6-20.7 0-51.4-16.5-84-46.6 14-14.7 28-31.4 41.3-49.9 22.6-2.4 44-6.1 63.6-11 2.3 10.1 4.1 19.8 5.2 29.1zm38.5-66.7c-8.6 3.7-18 7-27.7 10.1-5.7-19.6-13.2-40-22.5-60.9 9.2-20.8 16.6-41.1 22.2-60.6 9.9 3.1 19.3 6.5 28.1 10.2 35.4 15.1 58.3 34.9 58.3 50.6-.1 15.7-23 35.6-58.4 50.6z"/><circle cx="420.9" cy="296.5" r="45.7"/></g></symbol></svg>