<svg xmlns="http://www.w3.org/2000/svg" xmlns:xlink="http://www.w3.org/1999/xlink" width="0" height="0">
<defs><radialGradient id="php-a" gradientUnits="userSpaceOnUse" cy="-48.5" cx="77.9" gradientTransform="matrix(1.5 0 0 1.4 -41.2 75.7)" r="146"><stop stop-color="#dddce9" offset="0"/><stop stop-color="#5664a3" offset=".37"/><stop offset="1"/></radialGradient><linearGradient id="py-a" x1="47.7" x2="544.3" y1="363.4" y2="-63.9" gradientTransform="matrix(.56 0 0 -.57 -36.44 220.97)" gradientUnits="userSpaceOnUse"><stop offset="0" stop-color="#5a9fd4"/><stop offset="1" stop-color="#306998"/></linearGradient><linearGradient id="py-b" x1="736.305" x2="558.957" y1="-322.524" y2="-71.607" gradientTransform="matrix(.5625 0 0 -.568 -36.442 220.966)" gradientUnits="userSpaceOnUse"><stop offset="0" stop-color="#ffd43b"/><stop offset="1" stop-color="#ffe873"/></linearGradient></defs>
<symbol id="js" viewBox="0 0 1052 1052"><path fill="#f0db4f" d="M0 0h1052v1052H0z"/><path d="M965.9 801.1c-7.7-48-39-88.3-131.7-125.9-32.2-14.8-68.1-25.4-78.8-49.8-3.8-14.2-4.3-22.2-1.9-30.8 6.9-27.9 40.2-36.6 66.6-28.6 17 5.7 33.1 18.8 42.8 39.7 45.4-29.4 45.3-29.2 77-49.4-11.6-18-17.8-26.3-25.4-34-27.3-30.5-64.5-46.2-124-45-10.3 1.3-20.7 2.7-31 4-29.7 7.5-58 23.1-74.6 44-49.8 56.5-35.6 155.4 25 196.1 59.7 44.8 147.4 55 158.6 96.9 10.9 51.3-37.7 67.9-86 62-35.6-7.4-55.4-25.5-76.8-58.4-39.4 22.8-39.4 22.8-79.9 46.1 9.6 21 19.7 30.5 35.8 48.7 76.2 77.3 266.9 73.5 301.1-43.5 1.4-4 10.6-30.8 3.2-72.1zm-394-317.6h-98.4c0 85-0.4 169.4-0.4 254.4 0 54.1 2.8 103.7-6 118.9-14.4 29.9-51.7 26.2-68.7 20.4-17.3-8.5-26.1-20.6-36.3-37.7-2.8-4.9-4.9-8.7-5.6-9-26.7 16.3-53.3 32.7-80 49 13.3 27.3 32.9 51 58 66.4 37.5 22.5 87.9 29.4 140.6 17.3 34.3-10 63.9-30.7 79.4-62.2 22.4-41.3 17.6-91.3 17.4-146.6 0.5-90.2 0-180.4 0-270.9z" fill="#323330"/></symbol><symbol id="mysql" viewBox="0 0 512 512"><path d="m0 0H512V512H0" fill="#fff"/><path fill="#005c87" d="m55 285v56H41v-56q0-7 6-9t12-1 10 8l21 48 21-48q4-7 10-8t12 1 6 9v56h-14v-56l-22 49q-3 8-13 8t-13-8m74-38v32c0 6 8 13 25 13h28v5q0 6-11 6h-42v9h41q26 0 26-15v-50h-14v36h-31q-8 0-8-5v-31m176-130c7-2 12 6 6 10m34 90q-15-14-27-43-7 5-8 22c-1 7-17-14-6-40q2-6 0-8c-14-17-7-23-21-40s3-16 19-2c28-2 55 28 64 48s15 37 21 38q20 6 33 19-16 0-25 5c5 17 24 17 38 31-10-19-26-21-29-28 13-4 14-2 24-5q-12-17-39-28s-6-10-17-35-41-51-67-51c-27-21-41-5-26 11s4 18 21 40c-16 47 17 67 17 41l1-6c9 20 14 18 24 29"/><path fill="#e4830f" d="M229 332h38q11 0 11-6v-8q0-5-11-5h-15c-11 0-23-5-23-14v-8c0-9 7-15 21-15h43v9h-40q-9 0-9 6v6q0 7 9 7h19c11 0 20 6 20 12v11c0 9-11 14-21 14h-42m111-9h-12q-11 0-11-8v-31q0-8 12-8h18q12 0 12 8v32q0 4-4 6l-11-10h-16m35 17q9-2 9-13v-33q0-16-25-16h-21q-24 0-24 15v34q0 16 23 16h25l11 10h17m3-75h14v49q0 7 12 7h37v9h-38q-25 0-25-17"/></symbol><symbol id="node" viewBox="0 0 256 289" preserveAspectRatio="xMidYMid"><polygon points="128,0 250,74 250,215 128,288 2.5,215 6,74" fill="#f5f5f5"/><path d="M128 288.5c-4 0-7.7-1.1-11.1-2.9l-35.2-20.9c-5.3-2.9-2.7-4-1.1-4.5 7.2-2.4 8.5-2.9 15.9-7.2 0.8-0.5 1.9-0.3 2.7 0.3l27 16.2c1.1 0.5 2.4 0.5 3.2 0l105.7-61.2c1.1-0.5 1.6-1.6 1.6-2.9V83.1c0-1.3-0.5-2.4-1.6-2.9l-105.7-61c-1.1-0.5-2.4-0.5-3.2 0L20.4 80.2c-1.1 0.5-1.6 1.9-1.6 2.9v122.2c0 1.1 0.5 2.4 1.6 2.9l28.9 16.7c15.6 8 25.4-1.3 25.4-10.6V93.7c0-1.6 1.3-3.2 3.2-3.2h13.5c1.6 0 3.2 1.3 3.2 3.2v120.6c0 20.9-11.4 33.1-31.3 33.1-6.1 0-10.9 0-24.4-6.6l-27.8-15.9C4.2 220.9 0 213.5 0 205.5V83.3c0-8 4.2-15.4 11.1-19.3L116.9 2.8c6.6-3.7 15.6-3.7 22.3 0L244.9 64c6.9 4 11.1 11.4 11.1 19.3v122.2c0 8-4.2 15.4-11.1 19.3L139.1 286.1c-3.4 1.6-7.4 2.4-11.1 2.4zm32.6-84c-46.4 0-55.9-21.2-55.9-39.2 0-1.6 1.3-3.2 3.2-3.2h13.8c1.6 0 2.9 1.1 2.9 2.7 2.1 14 8.2 20.9 36.3 20.9 22.3 0 31.8-5 31.8-17 0-6.9-2.6-11.9-37.4-15.4-28.9-2.9-46.9-9.3-46.9-32.3 0-21.5 18-34.2 48.2-34.2 33.9 0 50.6 11.7 52.7 37.1 0 0.8-0.3 1.6-0.8 2.4-0.5 0.5-1.3 1.1-2.1 1.1h-13.8c-1.3 0-2.6-1.1-2.9-2.4-3.2-14.6-11.4-19.3-33.1-19.3-24.4 0-27.3 8.5-27.3 14.8 0 7.7 3.4 10.1 36.3 14.3 32.6 4.2 48 10.3 48 33.1-0.3 23.3-19.3 36.6-53 36.6z" fill="#539E43"/></symbol><symbol id="php" viewBox="0 0 295.6 157.5"><ellipse rx="146" ry="76" stroke="url(#php-a)" cy="78.7" cx="147.8" stroke-width="5.5" fill="#6c7eb7"/><path id="php-b" stroke-linejoin="round" d="M42.8 123.8l16-81h37c16 1 24 9 24 23 0 24-19 38-36 37h-18l-4 21h-19zm27-36l5-30h13c7 0 12 3 12 9-1 17-9 20-18 21h-12z" fill-rule="evenodd" stroke="#fff" stroke-width="2"/><path stroke-linejoin="round" d="M113.8 102.7l16-81h19l-4 21h18c16 1 22 9 20 19l-7 41h-20l7-37c1-5 1-8-6-8h-15l-9 45h-19z" stroke="#fff" stroke-width="2"/><use xlink:href="#php-b" transform="translate(134)" height="100%" width="100%"/></symbol><symbol id="python" viewBox="0 0 512 512"><path d="M253 0c-20.9.1-40.8 1.9-58.4 5-51.7 9.1-61.1 28.2-61.1 63.5V115h122.1v15.5H87.7c-35.5 0-66.6 21.3-76.3 61.9C.2 239-.3 268 11.4 316.6c8.7 36.2 29.4 61.9 64.9 61.9h42v-55.8c0-40.3 34.9-75.9 76.3-75.9h122c34 0 61.1-28 61.1-62.1V68.5c0-33.1-27.9-58-61.1-63.5-21-3.5-42.7-5.1-63.6-5m-66.1 37.4c12.6 0 22.9 10.5 22.9 23.3s-10.3 23.2-22.9 23.2C174.3 84 164 73.6 164 60.8c0-12.9 10.3-23.4 22.9-23.4" fill="url(#py-a)"/><path d="M392.9 130.6v54.2c0 42.1-35.7 77.4-76.3 77.4h-122c-33.4 0-61.1 28.6-61.1 62.1v116.3c0 33.1 28.8 52.6 61.1 62.1 38.7 11.4 75.7 13.4 122 0 30.8-8.9 61.1-26.8 61.1-62.1V394h-122v-15.5h183.1c35.5 0 48.7-24.8 61.1-61.9 12.8-38.3 12.2-75.1 0-124.1-8.8-35.3-25.5-61.9-61.1-61.9zm-68.6 294.5c12.7 0 22.9 10.4 22.9 23.2 0 12.9-10.3 23.3-22.9 23.3s-22.9-10.5-22.9-23.3 10.3-23.2 22.9-23.2" fill="url(#py-b)"/></symbol><symbol id="regex" viewBox="0 0 200 200"><circle cx="100" cy="100" r="100" fill="#4CAF50"/><text x="50%" y="50%" fill="#FFF" font-weight="600" font-size="100" font-family="Arial,sans-serif" text-anchor="middle" dominant-baseline="middle" lengthAdjust="spacingAndGlyphs">(.*)</text></symbol><symbol id="ts" viewBox="0 0 400 400"><path fill="#007acc" d="M0 200V0h400v400H0"/><path fill="#fff" d="M87.7 200.7V217h52v148h36.9V217h52v-16c0-9 0-16.3-.4-16.5 0-.3-31.7-.4-70.2-.4l-70 .3v16.4l-.3-.1zM321.4 184c10.2 2.4 18 7 25 14.3 3.7 4 9.2 11 9.6 12.8 0 .6-17.3 12.3-27.8 18.8-.4.3-2-1.4-3.6-4-5.2-7.4-10.5-10.6-18.8-11.2-12-.8-20 5.5-20 16 0 3.2.6 5 1.8 7.6 2.7 5.5 7.7 8.8 23.2 15.6 28.6 12.3 41 20.4 48.5 32 8.5 13 10.4 33.4 4.7 48.7-6.4 16.7-22 28-44.3 31.7-7 1.2-23 1-30.5-.3-16-3-31.3-11-40.7-21.3-3.7-4-10.8-14.7-10.4-15.4l3.8-2.4 15-8.7 11.3-6.6 2.6 3.5c3.3 5.2 10.7 12.2 15 14.6 13 6.7 30.4 5.8 39-2 3.7-3.4 5.3-7 5.3-12 0-4.6-.7-6.7-3-10.2-3.2-4.4-9.6-8-27.6-16-20.7-8.8-29.5-14.4-37.7-23-4.7-5.2-9-13.3-11-20-1.5-5.8-2-20-.6-25.7 4.3-20 19.4-34 41-38 7-1.4 23.5-.8 30.4 1l-.2.2z"/></symbol><symbol id="atlas" viewBox="0 0 32 32"><path d="M15.9 0.09l0.85 1.6c0.19 0.3 0.4 0.56 0.65 0.8 0.72 0.72 1.39 1.46 2 2.27 1.45 1.9 2.42 4.01 3.12 6.29 0.42 1.39 0.65 2.82 0.66 4.27 0.07 4.32-1.41 8.04-4.4 11.12-0.49 0.49-1.01 0.94-1.57 1.34-0.3 0-0.44-0.23-0.56-0.44-0.23-0.38-0.37-0.82-0.44-1.26-0.1-0.52-0.17-1.05-0.14-1.59v-0.24C16.06 24.21 15.8 0.21 15.9 0.09z" fill="#599636"/><path d="M15.9 0.03c-0.04-0.07-0.07-0.02-0.11 0.02 0.02 0.35-0.1 0.66-0.3 0.96-0.21 0.3-0.49 0.52-0.77 0.77-1.55 1.34-2.77 2.96-3.75 4.78-1.3 2.44-1.97 5.06-2.16 7.81-0.09 0.99 0.31 4.5 0.63 5.51 0.85 2.68 2.39 4.93 4.38 6.89 0.49 0.47 1.01 0.91 1.55 1.33 0.16 0 0.17-0.14 0.21-0.24 0.06-0.22 0.1-0.46 0.16-0.68l0.35-2.61L15.9 0.03z" fill="#6cac48"/><path d="M16.75 28.85c0.04-0.4 0.23-0.73 0.44-1.06-0.21-0.09-0.37-0.26-0.49-0.45-0.11-0.17-0.19-0.38-0.26-0.58-0.24-0.73-0.3-1.5-0.37-2.25v-0.45c-0.09 0.07-0.11 0.66-0.11 0.75-0.05 0.79-0.14 1.57-0.31 2.35-0.05 0.31-0.09 0.63-0.28 0.91 0 0.04 0 0.07 0.02 0.12 0.31 0.92 0.4 1.87 0.45 2.82v0.35c0 0.42-0.02 0.33 0.33 0.47 0.14 0.05 0.3 0.07 0.44 0.17 0.11 0 0.12-0.09 0.12-0.16l-0.05-0.58v-1.6c-0.02-0.28 0.04-0.56 0.07-0.82z" fill="#c2bfbf"/></symbol><symbol id="aws" viewBox="0 0 304 200"><path fill="#252f3e" d="m86 66 2 9c0 3 1 5 3 8v2l-1 3-7 4-2 1-3-1-4-5-3-6c-8 9-18 14-29 14-9 0-16-3-20-8-5-4-8-11-8-19s3-15 9-20c6-6 14-8 25-8a79 79 0 0 1 22 3v-7c0-8-2-13-5-16-3-4-8-5-16-5l-11 1a80 80 0 0 0-14 5h-2c-1 0-2-1-2-3v-5l1-3c0-1 1-2 3-2l12-5 16-2c12 0 20 3 26 8 5 6 8 14 8 25v32zM46 82l10-2c4-1 7-4 10-7l3-6 1-9v-4a84 84 0 0 0-19-2c-6 0-11 1-15 4-3 2-4 6-4 11s1 8 3 11c3 2 6 4 11 4zm80 10-4-1-2-3-23-78-1-4 2-2h10l4 1 2 4 17 66 15-66 2-4 4-1h8l4 1 2 4 16 67 17-67 2-4 4-1h9c2 0 3 1 3 2v2l-1 2-24 78-2 4-4 1h-9l-4-1-1-4-16-65-15 64-2 4-4 1h-9zm129 3a66 66 0 0 1-27-6l-3-3-1-2v-5c0-2 1-3 2-3h2l3 1a54 54 0 0 0 23 5c6 0 11-2 14-4 4-2 5-5 5-9l-2-7-10-5-15-5c-7-2-13-6-16-10a24 24 0 0 1 5-34l10-5a44 44 0 0 1 20-2 110 110 0 0 1 12 3l4 2 3 2 1 4v4c0 3-1 4-2 4l-4-2c-6-2-12-3-19-3-6 0-11 0-14 2s-4 5-4 9c0 3 1 5 3 7s5 4 11 6l14 4c7 3 12 6 15 10s5 9 5 14l-3 12-7 8c-3 3-7 5-11 6l-14 2z"/><path d="M274 144A220 220 0 0 1 4 124c-4-3-1-6 2-4a300 300 0 0 0 263 16c5-2 10 4 5 8z" fill="#f90"/><path d="M287 128c-4-5-28-3-38-1-4 0-4-3-1-5 19-13 50-9 53-5 4 5-1 36-18 51-3 2-6 1-5-2 5-10 13-33 9-38z" fill="#f90"/></symbol><symbol id="cpp" viewBox="0 0 64 64"><path fill="#00599c" d="M59.7 48c0.4-0.8 0.7-1.6 0.7-2.4V18.4c0-0.8-0.3-1.7-0.7-2.4L32 32Z" stroke-width="0.2"/><path fill="#004482" d="m34.5 63.4 23.5-13.6c0.7-0.4 1.3-1.1 1.7-1.8L32 32 4.3 48c0.4 0.8 1.1 1.4 1.7 1.8l23.5 13.6c1.4 0.8 3.6 0.8 4.9 0" stroke-width="0.2"/><path fill="#659ad2" d="M59.8 16c-0.4-0.8-1.1-1.4-1.7-1.8L34.5 0.6c-1.4-0.8-3.6-0.8-4.9 0L6.1 14.2c-1.4 0.8-2.5 2.7-2.5 4.3v27.1c0 0.8 0.3 1.7 0.7 2.4l27.7-16Z" stroke-width="0.2"/><path fill="#fff" d="M32 51c-10.5 0-19-8.5-19-19s8.5-19 19-19c6.7 0 13 3.6 16.4 9.5l-8.2 4.7a9.5 9.5 0 0 0-8.2-4.7c-5.2 0-9.5 4.3-9.5 9.5s4.3 9.5 9.5 9.5a9.5 9.5 0 0 0 8.2-4.7l8.2 4.7c-3.4 5.8-9.7 9.5-16.4 9.5"/><path fill="#fff" d="M46.8 35.2h2.1v-2.1h2.1v-2.1h-2.1v-2.1h-2.1v2.1h-2.1v2.1h2.1zM54.7 35.2h2.1v-2.1h2.1v-2.1h-2.1v-2.1h-2.1v2.1h-2.1v2.1h2.1z"/></symbol><symbol id="css" viewBox="0 0 512 512"><path fill="#264de4" d="M71.4 460.8 30.3 0h451.5l-41.1 460.7L255.7 512z"/><path fill="#2965f1" d="m405.4 431.4 35.1-393.7H256v435.1z"/><path fill="#ebebeb" d="m124.5 208.6 5.1 56.5H256V208.6zm-5-57.9H256V94.2H114.3zM256 355.4l-0.2 0.1-62.9-17-4-45.1h-56.7l7.9 88.7 115.8 32.1 0.3-0.1z"/><path fill="#fff" d="M255.8 208.6v56.5H325.4l-6.6 73.3-63 17v58.8l115.9-32.1 0.9-9.5 13.3-148.8 1.4-15.2 10.2-114.4H255.8v56.5h79.6L330.3 208.6z"/></symbol><symbol id="html" fill="none" viewBox="0 0 124 141.5"><path d="M10.4 126.9L0 0l124 0.3-11 126.6-50.6 14.6z" fill="#e34f26"/><path d="M62.5 129.3V12.1l51.1 0.2-9.1 104.9z" fill="#ef652a"/><path d="M99.5 41.4l1.4-15.5H22.4l4.3 47.5h54.2L78.8 93.6l-17.4 4.7-17.6-5.1-0.9-12.1H27.3l2.1 24.7 32 8.9 32.3-8.9 4.3-48.2H41.1L39.5 41.4z" fill="#fff"/></symbol></svg>