<svg xmlns="http://www.w3.org/2000/svg" viewBox="0 0 512 512"><path fill="#264de4" d="M71.4 460.8 30.3 0h451.5l-41.1 460.7L255.7 512z"/><path fill="#2965f1" d="m405.4 431.4 35.1-393.7H256v435.1z"/><path fill="#ebebeb" d="m124.5 208.6 5.1 56.5H256V208.6zm-5-57.9H256V94.2H114.3zM256 355.4l-0.2 0.1-62.9-17-4-45.1h-56.7l7.9 88.7 115.8 32.1 0.3-0.1z"/><path fill="#fff" d="M255.8 208.6v56.5H325.4l-6.6 73.3-63 17v58.8l115.9-32.1 0.9-9.5 13.3-148.8 1.4-15.2 10.2-114.4H255.8v56.5h79.6L330.3 208.6z"/></svg>