<svg xmlns="http://www.w3.org/2000/svg" viewBox="0 0 32 32"><path d="M15.9 0.09l0.85 1.6c0.19 0.3 0.4 0.56 0.65 0.8 0.72 0.72 1.39 1.46 2 2.27 1.45 1.9 2.42 4.01 3.12 6.29 0.42 1.39 0.65 2.82 0.66 4.27 0.07 4.32-1.41 8.04-4.4 11.12-0.49 0.49-1.01 0.94-1.57 1.34-0.3 0-0.44-0.23-0.56-0.44-0.23-0.38-0.37-0.82-0.44-1.26-0.1-0.52-0.17-1.05-0.14-1.59v-0.24C16.06 24.21 15.8 0.21 15.9 0.09z" fill="#599636"/><path d="M15.9 0.03c-0.04-0.07-0.07-0.02-0.11 0.02 0.02 0.35-0.1 0.66-0.3 0.96-0.21 0.3-0.49 0.52-0.77 0.77-1.55 1.34-2.77 2.96-3.75 4.78-1.3 2.44-1.97 5.06-2.16 7.81-0.09 0.99 0.31 4.5 0.63 5.51 0.85 2.68 2.39 4.93 4.38 6.89 0.49 0.47 1.01 0.91 1.55 1.33 0.16 0 0.17-0.14 0.21-0.24 0.06-0.22 0.1-0.46 0.16-0.68l0.35-2.61L15.9 0.03z" fill="#6cac48"/><path d="M16.75 28.85c0.04-0.4 0.23-0.73 0.44-1.06-0.21-0.09-0.37-0.26-0.49-0.45-0.11-0.17-0.19-0.38-0.26-0.58-0.24-0.73-0.3-1.5-0.37-2.25v-0.45c-0.09 0.07-0.11 0.66-0.11 0.75-0.05 0.79-0.14 1.57-0.31 2.35-0.05 0.31-0.09 0.63-0.28 0.91 0 0.04 0 0.07 0.02 0.12 0.31 0.92 0.4 1.87 0.45 2.82v0.35c0 0.42-0.02 0.33 0.33 0.47 0.14 0.05 0.3 0.07 0.44 0.17 0.11 0 0.12-0.09 0.12-0.16l-0.05-0.58v-1.6c-0.02-0.28 0.04-0.56 0.07-0.82z" fill="#c2bfbf"/></svg>