<svg xmlns="http://www.w3.org/2000/svg" height="140.62" width="150" version="1.1" viewBox="0 0 120 112.49469">
 <path d="m22.946 1.684c-1.096-0.002-2.192 0.036-3.286 0.076-2.403 0.104-4.814 0.249-7.187 0.665-0.525 0.075-1.031 0.279-1.559 0.321-1.102-0.486-2.267-0.845-3.467-0.984-1.676-0.221-3.468 0.052-4.876 1.032 2.27 1.153 3.513 3.653 3.833 6.091 0.084 4.841 0.031 9.685 0.045 14.527 0.015 1.177-0.085 2.366-0.431 3.495-0.248 0.774-0.627 1.562-1.333 2.018 1.299 1.315 1.68 3.251 1.697 5.037 0.001 5.19 0.01 10.38-0.003 15.57-0.118 1.031-0.439 2.036-0.812 3.005-0.607 1.486-1.518 2.969-2.988 3.729 0.755 0.612 1.718 0.906 2.669 1.023 1.854 0.216 3.704-0.273 5.4-0.992 1.224 0.517 2.53 0.846 3.85 0.986 1.739 0.184 3.579-0.044 5.082-0.989-1.834-1.694-3.195-3.926-3.701-6.381-0.073-0.382-0.044-0.771-0.048-1.156 0.003-4.404-0.002-8.81 0.003-13.213 2.983-0.503 6.17 0.417 8.419 2.441 2.245 2.001 3.551 4.835 4.307 7.697 0.994 3.808 1.16 7.779 1.034 11.694 1.886 0.154 3.785-0.273 5.488-1.077 1.301 0.504 2.664 0.85 4.056 0.975 1.672 0.163 3.455-0.047 4.885-0.989-1.34-0.908-2.606-1.932-3.698-3.131-0.971-1.102-1.857-2.396-2.012-3.895-0.549-3.475-1.537-6.915-3.222-10.017-1.247-2.276-3.02-4.38-5.412-5.496 2.694-0.867 5.284-2.204 7.348-4.163 1.431-1.38 2.555-3.142 2.906-5.121 0.202-0.894 0.09-1.82 0.223-2.723 0.165-1.296 0.702-2.598 1.722-3.453-1.323-1.192-1.758-3.058-1.793-4.775 0.073-1.721-0.378-3.444-1.187-4.958-1.051-1.961-2.777-3.493-4.729-4.527-2.452-1.29-5.201-1.907-7.943-2.179-1.091-0.118-2.185-0.162-3.281-0.163zm0.829 5.947c1.956 0.04 3.992 0.613 5.423 2.004 1.071 1.054 1.777 2.509 1.874 4.014-0.033 1.623-0.401 3.424-1.66 4.555 0.761 0.754 1.3 1.723 1.5 2.779 0.495 2.142-0.224 4.479-1.702 6.08-1.143 1.224-2.763 1.911-4.4 2.151-1.528 0.224-3.09 0.178-4.608-0.085-1.327-0.248-2.682-0.732-3.627-1.736-0.405-0.458-0.781-1.018-0.781-1.652 0.004-4.888 0.002-9.777 0.003-14.665 0.003-0.604 0.076-1.249 0.445-1.75 0.463-0.673 1.262-1.001 2.018-1.223 1.798-0.464 3.671-0.481 5.516-0.471zm47.816 20.77c-1.193-0.002-2.386 0.043-3.577 0.093-2.806 0.15-5.649 0.273-8.377 1.001-1.332-0.608-2.772-1.001-4.236-1.074-1.466-0.087-2.952 0.282-4.183 1.091 2.302 1.138 3.543 3.678 3.859 6.13 0.063 4.843 0.037 9.688 0.042 14.532 0.014 0.824-0.041 1.651-0.189 2.463-0.211 1.117-0.594 2.325-1.567 3.01 1.366 1.39 1.702 3.448 1.697 5.321-0.004 4.844-0.002 9.685-0.003 14.53 0.069 1.223-0.335 2.406-0.733 3.546-0.606 1.573-1.548 3.156-3.095 3.952 0.729 0.543 1.6 0.87 2.497 0.989 1.899 0.267 3.806-0.222 5.553-0.944 1.206 0.415 2.437 0.808 3.715 0.95 1.794 0.186 3.73 0.025 5.265-1.003-1.92-1.701-3.294-4.061-3.743-6.593-0.035-4.834 0.001-9.669-0.02-14.504 2.111 0.075 4.223 0.183 6.336 0.2 3.594 0.102 7.162-0.873 10.364-2.466 2.203-1.137 4.282-2.634 5.747-4.662 1.143-1.567 1.839-3.488 1.807-5.44 0.005-1.647 0.498-3.409 1.793-4.513-1.292-1.202-1.758-3.03-1.781-4.741 0.069-1.808-0.406-3.624-1.305-5.192-0.953-1.679-2.405-3.038-4.061-4.014-2.495-1.478-5.376-2.155-8.233-2.472-1.187-0.14-2.378-0.19-3.571-0.192zm0.73 5.944c0.924 0.027 1.843 0.135 2.734 0.406 1.387 0.405 2.675 1.232 3.515 2.421 0.673 0.937 1.105 2.067 1.178 3.222-0.044 1.632-0.422 3.42-1.68 4.563 1.226 1.051 1.673 2.744 1.68 4.304-0.095 1.885-0.913 3.769-2.368 5-1.688 1.438-3.994 1.859-6.153 1.818-1.8-0.062-3.689-0.304-5.226-1.319-0.725-0.511-1.404-1.239-1.525-2.148-0.008-5.014-0.007-10.026-0.003-15.04-0.023-0.856 0.381-1.715 1.116-2.173 1.181-0.73 2.606-0.857 3.957-0.981 0.917-0.048 1.849-0.101 2.773-0.073zm27.551 20.77c-1.597 0.004-3.199 0.308-4.62 1.051 1.439 0.273 2.826 0.938 3.842 2.01 1.429 1.438 2.028 3.509 2.06 5.496 0.001 4.413-0.004 8.825 0 13.239 0.019 1.25-0.206 2.537-0.84 3.627-0.676 1.177-1.839 1.998-3.115 2.416 1.537 0.451 2.877 1.593 3.453 3.103 0.536 1.25 0.522 2.632 0.502 3.966 0.001 3.904-0.002 7.809 0 11.714 0.03 1.786-0.326 3.644-1.356 5.135-1.036 1.528-2.742 2.527-4.543 2.852 1.809 0.968 3.924 1.168 5.939 0.992 1.663-0.154 3.358-0.648 4.651-1.748 1.62 1.363 3.815 1.812 5.885 1.798 1.606 0.039 3.226-0.294 4.668-1.009-0.505-0.172-1.036-0.267-1.522-0.49-1.463-0.598-2.709-1.718-3.43-3.126-0.687-1.314-0.919-2.814-0.936-4.281-0.009-4.031-0.093-8.06-0.107-12.092-0.085-1.399 0.04-2.858 0.679-4.126 0.644-1.323 1.901-2.294 3.306-2.692-0.657-0.212-1.297-0.502-1.843-0.93-1.168-0.867-1.857-2.256-2.058-3.675-0.201-1.157-0.047-2.33-0.079-3.495 0.019-3.427 0.093-6.852 0.099-10.279-0.021-1.763 0.199-3.598 1.116-5.138 0.995-1.762 2.853-2.912 4.817-3.272-1.64-0.838-3.515-1.127-5.341-1.029-1.865 0.096-3.804 0.555-5.259 1.787-1.224-1.033-2.809-1.54-4.38-1.714-0.525-0.061-1.054-0.091-1.587-0.09z" stroke="#111" stroke-width="2.75" fill="#e2231b"/>
</svg>
