<svg xmlns="http://www.w3.org/2000/svg" xmlns:xlink="http://www.w3.org/1999/xlink" width="0" height="0">
<symbol id="paperclip" viewBox="6 2 12 21" fill="none"><path d="M14.1 6.7V16.3C14.1 17.4 13.1 18.3 12.0 18.3C10.9 18.3 9.9 17.4 9.9 16.3V8.2M14.1 6.7L14.1 14.9M14.1 6.7C14.1 4.8 12.6 3.3 10.7 3.3C8.8 3.3 7.3 4.8 7.3 6.7L7.3 14.9M16.7 10.1V17.0C16.7 19.6 14.6 21.8 12.0 21.8C9.4 21.8 7.3 19.6 7.3 17.0V10.1" stroke="var(--accent-dark)" stroke-width="1.5"/></symbol>
<symbol id="star" viewBox="0 0 24 24" fill="none"><path d="M12.7 2.0C12.5 1.8 12.3 1.6 12.0 1.6C11.7 1.6 11.5 1.8 11.3 2.0L8.7 7.4L2.7 8.3C2.5 8.3 2.2 8.5 2.1 8.8C2.0 9.1 2.1 9.4 2.3 9.6L6.6 13.7L5.6 19.7C5.6 19.9 5.7 20.2 5.9 20.4C6.1 20.6 6.4 20.6 6.7 20.5L12.0 17.7L17.3 20.5C17.6 20.6 17.9 20.6 18.1 20.4C18.3 20.2 18.4 19.9 18.4 19.7L17.4 13.7L21.7 9.6C21.9 9.4 22.0 9.1 21.9 8.8C21.8 8.5 21.5 8.3 21.3 8.3L15.3 7.4L12.7 2.0Z" fill="var(--accent-dark)"/></symbol>
<symbol id="cap" viewBox="0 0 24 25" fill="none"><path d="M11.7 4.1C11.9 4.0 12.1 4.0 12.3 4.1L21.5 8.1C21.8 8.2 22.0 8.4 22.0 8.7V15.5C22.0 15.9 21.7 16.2 21.3 16.2C20.8 16.2 20.5 15.9 20.5 15.5V9.9L12.3 13.4C12.1 13.5 11.9 13.5 11.7 13.4L2.5 9.4C2.2 9.3 2.0 9.0 2.0 8.7C2.0 8.4 2.2 8.2 2.5 8.1L11.7 4.1Z" fill="var(--accent-dark)"/><path d="M5.1 11.7V16.7C5.1 16.8 5.2 17.0 5.2 17.1L5.2 17.1L5.2 17.1L5.2 17.1L5.3 17.1C5.3 17.1 5.3 17.1 5.3 17.1C5.3 17.2 5.3 17.2 5.4 17.3C5.4 17.4 5.5 17.5 5.7 17.6C6.0 18.0 6.4 18.4 6.9 18.8C8.0 19.6 9.7 20.4 12.0 20.4C14.3 20.4 16.0 19.6 17.1 18.8C17.6 18.4 18.0 18.0 18.3 17.6C18.5 17.5 18.6 17.4 18.6 17.3C18.7 17.2 18.7 17.2 18.7 17.1C18.7 17.1 18.7 17.1 18.7 17.1L18.7 17.1L18.7 17.1L18.8 17.1C18.8 17.0 18.9 16.8 18.9 16.7V11.7L12.7 14.4C12.3 14.5 11.7 14.5 11.3 14.4L5.1 11.7Z" fill="var(--accent-dark)"/></symbol>
<symbol id="calendar" viewBox="0 0 24 24" fill="none"><path d="M7.2 12.8C7.2 12.3 7.5 12.0 8.0 12.0H8.0C8.4 12.0 8.8 12.3 8.8 12.8C8.8 13.2 8.4 13.6 8.0 13.6H8.0C7.5 13.6 7.2 13.2 7.2 12.8Z" fill="var(--accent-dark)"/><path d="M8.0 16.0C7.5 16.0 7.2 16.3 7.2 16.8C7.2 17.2 7.5 17.6 8.0 17.6H8.0C8.4 17.6 8.8 17.2 8.8 16.8C8.8 16.3 8.4 16.0 8.0 16.0H8.0Z" fill="var(--accent-dark)"/><path d="M11.2 12.8C11.2 12.3 11.6 12.0 12.0 12.0H12.0C12.4 12.0 12.8 12.3 12.8 12.8C12.8 13.2 12.4 13.6 12.0 13.6H12.0C11.6 13.6 11.2 13.2 11.2 12.8Z" fill="var(--accent-dark)"/><path d="M12.0 16.0C11.6 16.0 11.2 16.3 11.2 16.8C11.2 17.2 11.6 17.6 12.0 17.6H12.0C12.4 17.6 12.8 17.2 12.8 16.8C12.8 16.3 12.4 16.0 12.0 16.0H12.0Z" fill="var(--accent-dark)"/><path d="M15.2 12.8C15.2 12.3 15.6 12.0 16.0 12.0H16.0C16.5 12.0 16.8 12.3 16.8 12.8C16.8 13.2 16.5 13.6 16.0 13.6H16.0C15.6 13.6 15.2 13.2 15.2 12.8Z" fill="var(--accent-dark)"/><path d="M16.0 16.0C15.6 16.0 15.2 16.3 15.2 16.8C15.2 17.2 15.6 17.6 16.0 17.6H16.0C16.5 17.6 16.8 17.2 16.8 16.8C16.8 16.3 16.5 16.0 16.0 16.0H16.0Z" fill="var(--accent-dark)"/><path fill-rule="evenodd" clip-rule="evenodd" d="M8.8 2.8C8.8 2.3 8.4 2.0 8.0 2.0C7.6 2.0 7.2 2.3 7.2 2.8V3.8H5.5C4.3 3.8 3.2 4.8 3.2 6.0V19.0C3.2 20.2 4.3 21.3 5.5 21.3H18.5C19.7 21.3 20.8 20.2 20.8 19.0V6.0C20.8 4.8 19.7 3.8 18.5 3.8H16.8V2.8C16.8 2.3 16.4 2.0 16.0 2.0C15.6 2.0 15.2 2.3 15.2 2.8V3.8H8.8V2.8ZM19.3 8.3V6.0C19.3 5.6 18.9 5.3 18.5 5.3H5.5C5.1 5.3 4.8 5.6 4.8 6.0V8.3H19.3ZM4.8 9.8H19.3V19.0C19.3 19.4 18.9 19.8 18.5 19.8H5.5C5.1 19.8 4.8 19.4 4.8 19.0V9.8Z" fill="var(--accent-dark)"/></symbol>
<symbol id="handshake" viewBox="0 0 24 24" fill="none"><path fill-rule="evenodd" clip-rule="evenodd" d="M11.8 6.5C11.8 6.5 11.8 6.5 11.8 6.4L11.0 5.9C9.9 5.2 8.4 5.3 7.4 6.1L5.4 7.8C5.3 7.9 5.1 8.0 5.0 8.0H2.8C2.3 8.0 2.0 8.3 2.0 8.7V14.8C2.0 15.2 2.3 15.5 2.8 15.5H4.8C5.1 15.5 5.3 15.6 5.4 15.8L7.7 18.4C8.5 19.3 9.8 19.4 10.7 18.8L11.4 18.3L12.1 18.6C13.1 18.9 14.1 18.6 14.7 17.8L15.1 17.1L15.5 17.2C16.4 17.3 17.3 16.8 17.7 16.0L17.8 15.9H21.3C21.7 15.9 22.0 15.6 22.0 15.2V8.7C22.0 8.3 21.7 8.0 21.3 8.0H19.0C18.9 8.0 18.7 7.9 18.5 7.8L16.9 6.3C15.4 5.1 13.2 5.1 11.8 6.5ZM10.2 7.2C9.6 6.8 8.9 6.8 8.4 7.3L6.4 8.9C6.0 9.3 5.5 9.5 5.0 9.5H3.5V14.0H4.8C5.5 14.0 6.1 14.3 6.5 14.8L8.9 17.4C9.1 17.7 9.5 17.8 9.9 17.6L10.9 16.9C11.0 16.7 11.3 16.7 11.5 16.8L12.6 17.1C12.9 17.2 13.3 17.1 13.5 16.9L14.2 15.9C14.4 15.6 14.6 15.5 14.9 15.6L15.7 15.7C16.0 15.7 16.3 15.6 16.4 15.3L16.7 14.8L16.7 14.8L16.7 14.8L16.7 14.8C16.9 14.5 16.8 14.1 16.6 13.9L13.9 11.3L11.8 12.9C11.0 13.6 9.7 13.6 8.9 12.8L8.8 12.7C7.9 11.9 7.9 10.4 8.8 9.5L10.7 7.5L10.2 7.2ZM18.3 14.4H20.5V9.5H19.0C18.5 9.5 18.0 9.3 17.6 8.9L15.9 7.5C15.0 6.7 13.6 6.7 12.8 7.6L9.8 10.6C9.6 10.9 9.6 11.3 9.9 11.6L9.9 11.7C10.2 12.0 10.6 12.0 10.9 11.8L13.5 9.7L13.5 9.7L13.5 9.7L14.0 9.3C14.4 9.0 14.8 9.1 15.1 9.4C15.3 9.7 15.3 10.1 15.1 10.3L17.6 12.8C18.1 13.2 18.3 13.8 18.3 14.4Z" fill="var(--accent-dark)"/></symbol>
<symbol id="bulb" viewBox="0 0 25 24" fill="none"><path fill-rule="evenodd" clip-rule="evenodd" d="M9.1 18.0C9.0 16.9 8.3 15.9 7.3 14.9C5.9 13.5 5.0 11.6 5.0 9.5C5.0 5.4 8.4 2.0 12.5 2.0C16.6 2.0 20.0 5.4 20.0 9.5C20.0 11.6 19.1 13.5 17.7 14.9C16.7 15.9 15.9 17.0 15.9 18.2V19.8C15.9 21.0 14.9 22.0 13.7 22.0H11.3C10.1 22.0 9.1 21.0 9.1 19.8V18.0ZM6.5 9.5C6.5 6.2 9.2 3.5 12.5 3.5C15.8 3.5 18.5 6.2 18.5 9.5C18.5 11.2 17.8 12.7 16.7 13.8C16.0 14.5 15.2 15.4 14.8 16.5H13.3V11.8C13.6 11.7 13.8 11.6 14.1 11.3L14.9 10.5C15.2 10.2 15.2 9.7 14.9 9.4C14.6 9.1 14.2 9.1 13.9 9.4L13.0 10.2C12.7 10.5 12.3 10.5 12.0 10.2L11.1 9.4C10.8 9.1 10.4 9.1 10.1 9.4C9.8 9.7 9.8 10.2 10.1 10.5L10.9 11.3C11.2 11.6 11.4 11.7 11.8 11.8V16.5H10.2C9.8 15.4 9.0 14.5 8.3 13.8C7.2 12.7 6.5 11.2 6.5 9.5ZM10.6 18.2C10.6 18.2 10.6 18.2 10.6 18.2C10.6 18.1 10.6 18.1 10.6 18.0V18.0H14.4V19.8C14.4 20.2 14.1 20.5 13.7 20.5H11.3C10.9 20.5 10.6 20.2 10.6 19.8V18.2Z" fill="var(--accent-dark)"/></symbol>
<symbol id="monitor" viewBox="0 0 24 24" fill="none"><path d="M14.5 4.9L12.0 7.4L14.5 9.9M18.8 4.9L21.3 7.4L18.8 9.9M12.0 16.8H19.8C20.6 16.8 21.3 16.2 21.3 15.3V15.0M12.0 16.8H4.3C3.4 16.8 2.8 16.2 2.8 15.3V6.7C2.8 5.9 3.4 5.2 4.3 5.2H9.0M12.0 16.8V20.0M9.0 20.0H12.0M12.0 20.0H15.0" stroke="var(--accent-dark)" stroke-width="1.5"/></symbol>
<symbol id="mail" viewBox="0 0 24 24" fill="none"><path d="M4.0 7.0L10.2 11.7C11.3 12.5 12.7 12.5 13.8 11.7L20.0 7.0" stroke="var(--accent-dark)" stroke-width="2"/><rect x="3.0" y="5.0" width="18.0" height="14.0" rx="2.0" stroke="var(--accent-dark)" stroke-width="2"/></symbol>
</svg>