<?xml version="1.0" encoding="UTF-8" standalone="no"?>
<svg xmlns:rdf="http://www.w3.org/1999/02/22-rdf-syntax-ns#" xmlns="http://www.w3.org/2000/svg" height="140.62" width="150" version="1.1" xmlns:cc="http://creativecommons.org/ns#" xmlns:dc="http://purl.org/dc/elements/1.1/" viewBox="0 0 120 112.49469">
 <path d="m22.946 1.6839c-1.0959-0.0019-2.1921 0.03624-3.2864 0.0761-2.4034 0.10416-4.8135 0.24854-7.1873 0.66518-0.52466 0.07458-1.0314 0.27888-1.5587 0.32131-1.102-0.48608-2.267-0.84479-3.4668-0.98367-1.6756-0.22118-3.468 0.05172-4.8761 1.0316 2.2696 1.1535 3.513 3.6528 3.8332 6.0909 0.08359 4.8415 0.03095 9.6853 0.0451 14.527 0.01543 1.1766-0.08533 2.366-0.43124 3.495-0.24818 0.77412-0.6272 1.5616-1.3332 2.0181 1.2988 1.3155 1.6801 3.2506 1.6968 5.0367 0.0013 5.19 0.01004 10.38-0.0028 15.57-0.1183 1.0313-0.43882 2.0363-0.81174 3.0046-0.60696 1.4865-1.5178 2.969-2.9877 3.7289 0.75484 0.6121 1.7176 0.90612 2.6692 1.0231 1.8543 0.21604 3.7042-0.2733 5.4003-0.99213 1.2242 0.51694 2.5295 0.84633 3.8501 0.98649 1.7386 0.18389 3.5786-0.04416 5.0818-0.98931-1.8337-1.6936-3.1954-3.9264-3.7007-6.3812-0.0733-0.38192-0.04406-0.77111-0.04792-1.1556 0.0026-4.4043-0.0023-8.8103 0.0028-13.213 2.9833-0.5028 6.1699 0.41682 8.419 2.4409 2.2452 2.0009 3.5506 4.835 4.3067 7.6974 0.99401 3.8076 1.1604 7.7785 1.0344 11.694 1.8864 0.15431 3.7851-0.27298 5.4877-1.0767 1.3014 0.50408 2.6645 0.85048 4.0559 0.97522 1.6717 0.16331 3.4546-0.04673 4.8845-0.98931-1.3399-0.90786-2.6062-1.9316-3.6979-3.1314-0.97087-1.102-1.8568-2.3958-2.0124-3.8952-0.54911-3.4746-1.5371-6.9155-3.2216-10.017-1.2473-2.2761-3.0198-4.38-5.4116-5.4962 2.694-0.86671 5.284-2.2045 7.3479-4.163 1.4312-1.3798 2.5549-3.1423 2.9059-5.1213 0.20189-0.89371 0.09021-1.82 0.22266-2.7227 0.1646-1.2962 0.7024-2.5976 1.7221-3.4527-1.3232-1.192-1.7579-3.0579-1.7926-4.7746 0.0733-1.7206-0.37776-3.4443-1.1866-4.9578-1.0506-1.961-2.7775-3.4927-4.7295-4.5266-2.4522-1.2898-5.201-1.9074-7.9426-2.1787-1.0905-0.11831-2.1849-0.16155-3.2808-0.16348zm0.82865 5.9471c1.9559 0.03986 3.9916 0.61262 5.4229 2.004 1.0712 1.0545 1.7766 2.5091 1.8743 4.0136-0.03343 1.6228-0.40121 3.4244-1.6601 4.5548 0.76126 0.75355 1.3001 1.7233 1.4995 2.7791 0.49508 2.1423-0.22359 4.4786-1.7024 6.0796-1.1432 1.2242-2.7628 1.9114-4.3997 2.1505-1.5277 0.22375-3.0896 0.17777-4.6083-0.08456-1.3271-0.24818-2.6823-0.73192-3.6275-1.7362-0.40507-0.45779-0.78074-1.0177-0.78074-1.6517 0.0039-4.8878 0.0015-9.7771 0.0028-14.665 0.0026-0.60438 0.07627-1.2488 0.44533-1.7503 0.46293-0.67254 1.262-1.0008 2.0181-1.2232 1.7977-0.46422 3.6706-0.48098 5.5159-0.4707zm47.816 20.77c-1.1927-0.0021-2.386 0.0435-3.5767 0.09301-2.8059 0.15045-5.6493 0.27275-8.3767 1.0006-1.3322-0.60824-2.7716-1.0006-4.2363-1.0739-1.466-0.08744-2.9521 0.28193-4.1827 1.0908 2.3018 1.138 3.5435 3.6781 3.8586 6.1303 0.06301 4.8428 0.03705 9.6884 0.04228 14.532 0.01415 0.82428-0.04096 1.6507-0.18884 2.4634-0.21089 1.1175-0.59367 2.3248-1.5671 3.0102 1.3656 1.3901 1.702 3.4478 1.6968 5.3214-0.0038 4.8441-0.0015 9.6855-0.0028 14.53 0.06944 1.2229-0.33547 2.4064-0.73282 3.5457-0.60567 1.5727-1.5478 3.1556-3.0948 3.9516 0.72912 0.54266 1.5997 0.86971 2.4972 0.98931 1.8993 0.26747 3.8063-0.22152 5.5525-0.94421 1.2062 0.41536 2.4366 0.80841 3.7148 0.94985 1.7939 0.18646 3.7296 0.02534 5.265-1.0034-1.9199-1.7013-3.2942-4.0606-3.743-6.5926-0.0348-4.8338 0.000852-9.6692-0.01973-14.504 2.1115 0.07458 4.2233 0.18334 6.3361 0.20012 3.5942 0.10159 7.1618-0.87297 10.364-2.4662 2.2028-1.1368 4.2823-2.634 5.747-4.6619 1.1432-1.5675 1.8388-3.4878 1.8067-5.4398 0.0051-1.6473 0.49768-3.4092 1.7926-4.5125-1.2924-1.2023-1.7582-3.0305-1.7813-4.7408 0.06944-1.808-0.40613-3.6242-1.305-5.1918-0.95289-1.6794-2.4053-3.0376-4.0615-4.0136-2.4947-1.4775-5.3757-2.1555-8.233-2.4719-1.1869-0.14016-2.3784-0.18957-3.5711-0.19166zm0.73 5.9443c0.92442 0.02732 1.8428 0.13518 2.734 0.40587 1.3875 0.40506 2.675 1.2317 3.5147 2.4211 0.67254 0.93744 1.1049 2.0668 1.1782 3.2216-0.04372 1.6318-0.42222 3.42-1.6799 4.5632 1.2255 1.0506 1.6734 2.7441 1.6799 4.3039-0.09516 1.8852-0.9132 3.7695-2.3676 5.0001-1.6884 1.4377-3.9938 1.8591-6.1529 1.818-1.8003-0.06172-3.6889-0.30449-5.2256-1.3191-0.72526-0.51051-1.404-1.2386-1.5248-2.1477-0.0078-5.0138-0.0066-10.026-0.0028-15.04-0.02315-0.85642 0.3806-1.7153 1.1161-2.1731 1.1805-0.7304 2.6057-0.85742 3.9572-0.98085 0.9175-0.04822 1.849-0.10061 2.7734-0.07328zm27.551 20.77c-1.5971 0.0036-3.199 0.30773-4.6196 1.0513 1.4389 0.27262 2.8258 0.93845 3.8417 2.0096 1.4287 1.4377 2.0282 3.5094 2.0604 5.4962 0.001 4.4133-0.004 8.8254 0 13.239 0.0193 1.2499-0.20597 2.537-0.83993 3.6275-0.67639 1.1766-1.8389 1.9976-3.1145 2.4155 1.5367 0.45136 2.8766 1.5935 3.4527 3.1032 0.53622 1.2499 0.52228 2.6322 0.5017 3.9657 0.001 3.9041-0.002 7.8085 0 11.714 0.0296 1.7862-0.3257 3.6437-1.3557 5.1354-1.0365 1.5277-2.7419 2.527-4.5435 2.8524 1.8093 0.9683 3.9236 1.1683 5.9387 0.99213 1.6627-0.15431 3.3582-0.64804 4.6506-1.7475 1.6203 1.3631 3.8148 1.8123 5.8851 1.7982 1.6061 0.0386 3.226-0.29407 4.6675-1.009-0.50537-0.17231-1.0359-0.26668-1.522-0.49043-1.4634-0.59795-2.7088-1.7177-3.4302-3.1258-0.68668-1.3142-0.91898-2.8141-0.93576-4.2814-0.009-4.0314-0.093-8.0602-0.1071-12.092-0.0849-1.3991 0.0402-2.8584 0.67927-4.1263 0.64424-1.3232 1.9006-2.2944 3.3062-2.6917-0.65711-0.21218-1.2968-0.50191-1.8433-0.93012-1.1676-0.86671-1.8569-2.2557-2.0575-3.6754-0.20059-1.1573-0.0468-2.33-0.0789-3.495 0.0193-3.427 0.0934-6.8523 0.0987-10.279-0.0206-1.763 0.19929-3.5977 1.1162-5.1382 0.9953-1.7617 2.8533-2.9123 4.8169-3.2723-1.6396-0.83842-3.5151-1.1265-5.3411-1.0288-1.8646 0.09644-3.8037 0.55504-5.2594 1.787-1.2242-1.0326-2.8086-1.5401-4.38-1.7137-0.52498-0.06076-1.0545-0.0914-1.5868-0.09019z" stroke="#222" stroke-width="1.8039" fill="#e2231b"/>
</svg>
