<svg viewBox="0 0 256 256" fill="none" xmlns="http://www.w3.org/2000/svg"><clipPath id="p.0"><path d="m0 0l256.0 0l0 256.0l-256.0 0l0 -256.0z"/></clipPath><g clip-path="url(#p.0)"><path fill="#000" fill-opacity="0" d="m0 0l256.0 0l0 256.0l-256.0 0z"/><path fill="#000" fill-opacity="0" d="m124.8 69.6c8.1 -7.6 31.0 -47.8 48.8 -45.8c17.8 2.0 61.9 34.1 57.8 57.8c-4.1 23.7 -61.6 76.3 -82.3 84.6c-20.6 8.3 -34.6 -29.0 -41.5 -34.8"/><path stroke="#e9e9e9" stroke-width="24" d="m124.8 69.6c8.1 -7.6 31.0 -47.8 48.8 -45.8c17.8 2.0 61.9 34.1 57.8 57.8c-4.1 23.7 -61.6 76.3 -82.3 84.6c-20.6 8.3 -34.6 -29.0 -41.5 -34.8"/><path fill="#000" fill-opacity="0" d="m128.7 188.3c-8.4 8.0 -32.4 49.8 -50.5 48.2c-18.0 -1.6 -61.9 -34.1 -57.8 -57.8c4.1 -23.7 61.3 -75.8 82.3 -84.6c20.9 -8.8 36.2 26.6 43.4 31.9"/><path stroke="#e9e9e9" stroke-width="24" d="m128.7 188.3c-8.4 8.0 -32.4 49.8 -50.5 48.2c-18.0 -1.6 -61.9 -34.1 -57.8 -57.8c4.1 -23.7 61.3 -75.8 82.3 -84.6c20.9 -8.8 36.2 26.6 43.4 31.9"/></g></svg>