<svg xmlns="http://www.w3.org/2000/svg" viewBox="0 0 256 289" preserveAspectRatio="xMidYMid"><polygon points="128,0 250,74 250,215 128,288 2.5,215 6,74" fill="#f5f5f5"/><path d="M128 288.5c-4 0-7.7-1.1-11.1-2.9l-35.2-20.9c-5.3-2.9-2.7-4-1.1-4.5 7.2-2.4 8.5-2.9 15.9-7.2 0.8-0.5 1.9-0.3 2.7 0.3l27 16.2c1.1 0.5 2.4 0.5 3.2 0l105.7-61.2c1.1-0.5 1.6-1.6 1.6-2.9V83.1c0-1.3-0.5-2.4-1.6-2.9l-105.7-61c-1.1-0.5-2.4-0.5-3.2 0L20.4 80.2c-1.1 0.5-1.6 1.9-1.6 2.9v122.2c0 1.1 0.5 2.4 1.6 2.9l28.9 16.7c15.6 8 25.4-1.3 25.4-10.6V93.7c0-1.6 1.3-3.2 3.2-3.2h13.5c1.6 0 3.2 1.3 3.2 3.2v120.6c0 20.9-11.4 33.1-31.3 33.1-6.1 0-10.9 0-24.4-6.6l-27.8-15.9C4.2 220.9 0 213.5 0 205.5V83.3c0-8 4.2-15.4 11.1-19.3L116.9 2.8c6.6-3.7 15.6-3.7 22.3 0L244.9 64c6.9 4 11.1 11.4 11.1 19.3v122.2c0 8-4.2 15.4-11.1 19.3L139.1 286.1c-3.4 1.6-7.4 2.4-11.1 2.4zm32.6-84c-46.4 0-55.9-21.2-55.9-39.2 0-1.6 1.3-3.2 3.2-3.2h13.8c1.6 0 2.9 1.1 2.9 2.7 2.1 14 8.2 20.9 36.3 20.9 22.3 0 31.8-5 31.8-17 0-6.9-2.6-11.9-37.4-15.4-28.9-2.9-46.9-9.3-46.9-32.3 0-21.5 18-34.2 48.2-34.2 33.9 0 50.6 11.7 52.7 37.1 0 0.8-0.3 1.6-0.8 2.4-0.5 0.5-1.3 1.1-2.1 1.1h-13.8c-1.3 0-2.6-1.1-2.9-2.4-3.2-14.6-11.4-19.3-33.1-19.3-24.4 0-27.3 8.5-27.3 14.8 0 7.7 3.4 10.1 36.3 14.3 32.6 4.2 48 10.3 48 33.1-0.3 23.3-19.3 36.6-53 36.6z" fill="#539E43"/></svg>